<svg width="54" height="47" viewBox="0 0 54 47" fill="none" xmlns="http://www.w3.org/2000/svg">
<path d="M15.9858 46.1962C17.0164 46.1962 17.8519 45.3608 17.8519 44.3302C17.8519 43.2996 17.0164 42.4641 15.9858 42.4641C14.9552 42.4641 14.1198 43.2996 14.1198 44.3302C14.1198 45.3608 14.9552 46.1962 15.9858 46.1962Z" stroke="white" stroke-linecap="round" stroke-linejoin="round"/>
<path d="M36.5127 46.1962C37.5433 46.1962 38.3787 45.3608 38.3787 44.3302C38.3787 43.2996 37.5433 42.4641 36.5127 42.4641C35.4821 42.4641 34.6466 43.2996 34.6466 44.3302C34.6466 45.3608 35.4821 46.1962 36.5127 46.1962Z" stroke="white" stroke-linecap="round" stroke-linejoin="round"/>
<path d="M1.05713 7.00854H8.52139L13.5225 31.9952C13.6931 32.8543 14.1605 33.626 14.8428 34.1753C15.5251 34.7245 16.3788 35.0163 17.2546 34.9995H35.3927C36.2685 35.0163 37.1222 34.7245 37.8046 34.1753C38.4869 33.626 38.9542 32.8543 39.1249 31.9952L42.1106 16.3389H10.3875" stroke="white" stroke-linecap="round" stroke-linejoin="round"/>
</svg>
