<svg viewBox="0 0 54 50" xmlns="http://www.w3.org/2000/svg">
    <style>
        <![CDATA[:root>svg{display:none}:root>svg:target{display:block}]]>
    </style>
    <svg viewBox="0 0 15.698 8.706" id="arrow" xmlns="http://www.w3.org/2000/svg">
        <path d="m11.354 0-.708.706 3.14 3.147H0v1h13.786L10.646 8l.708.706 4.344-4.353z"/>
    </svg>
    <svg viewBox="0 0 54 47" id="cart" xmlns="http://www.w3.org/2000/svg">
        <path d="M15.986 46.196a1.866 1.866 0 1 0 0-3.732 1.866 1.866 0 0 0 0 3.732zm20.527 0a1.866 1.866 0 1 0 0-3.732 1.866 1.866 0 0 0 0 3.732zM1.057 7.009h7.464l5.002 24.986A3.732 3.732 0 0 0 17.255 35h18.138a3.733 3.733 0 0 0 3.732-3.004L42.11 16.34H10.388" stroke="#fff" stroke-linecap="round" stroke-linejoin="round"/>
    </svg>
    <svg viewBox="0 0 50 50" id="coffeecup" xmlns="http://www.w3.org/2000/svg">
        <g clip-path="url(#cclip0_1_620)">
            <path d="M46.85 41.85h-7.073a.732.732 0 1 0 0 1.466h6.34v.413l-10.664 2.025H14.075L3.41 43.73v-.413h33.648a.732.732 0 1 0 0-1.465h-4.725a14.175 14.175 0 0 0 5.018-5.495 7.7 7.7 0 0 0 2.924.569c4.29 0 7.78-3.49 7.78-7.78s-3.49-7.78-7.78-7.78a7.82 7.82 0 0 0-1.378.124v-.42c0-.937-.762-1.7-1.7-1.7h-3.464a.732.732 0 1 0 0 1.465h3.464c.13 0 .236.106.236.236v1.245h-25.34V21.07c0-.13.106-.236.236-.236h18.684a.732.732 0 1 0 0-1.465H12.329c-.938 0-1.7.763-1.7 1.7v8.846c0 1.105.129 2.2.38 3.264-1.191-.355-2.612-.076-3.908.81a.732.732 0 1 0 .827 1.21c.85-.581 1.741-.81 2.478-.662l-2.668 3.991a.732.732 0 0 0 1.218.815l2.669-3.993c.277.41.428.948.435 1.575v.005c.01.967-.328 2.014-.951 2.947a5.759 5.759 0 0 1-1.252 1.357c-.33.259-.677.465-1.032.617H6.511a1.699 1.699 0 0 1-.079-.05c-1.22-.814-1.296-2.92-.176-4.795A.733.733 0 0 0 5 36.254c-.714 1.195-1.063 2.526-.982 3.749.045.693.227 1.319.526 1.848H2.678a.732.732 0 0 0-.733.732v1.752c0 .352.25.654.596.72l10.77 2.045v2.168c0 .404.329.732.733.732h21.438a.732.732 0 0 0 .733-.732V47.1l10.771-2.045a.733.733 0 0 0 .596-.72v-1.752a.732.732 0 0 0-.732-.732zm-7.953-11.935V26.45a3.009 3.009 0 0 1 1.378-.334 3.032 3.032 0 0 1 3.029 3.029 3.032 3.032 0 0 1-3.029 3.028 3.005 3.005 0 0 1-1.499-.399c.08-.611.121-1.232.121-1.859zm-.4 3.357a4.498 4.498 0 0 0 6.27-4.127 4.498 4.498 0 0 0-5.87-4.277v-1.886a6.322 6.322 0 0 1 7.693 6.163 6.322 6.322 0 0 1-6.315 6.315c-.807 0-1.585-.15-2.322-.443.22-.568.4-1.15.545-1.745zM12.095 23.78h25.339v6.135a12.59 12.59 0 0 1-3.71 8.96 12.75 12.75 0 0 1-4.701 2.976h-8.516a12.428 12.428 0 0 1-.703-.274c.537-.845.742-1.785.565-2.68v-.004l-.001-.004c-.234-1.166-1.057-2.125-2.32-2.7-1.182-.54-2.628-.68-4.07-.393a7.472 7.472 0 0 0-.39.088 12.658 12.658 0 0 1-1.493-5.969V23.78zm.233 16.91c.678-1.014 1.087-2.152 1.178-3.254.246-.083.499-.152.758-.204 1.863-.37 3.66.191 4.377 1.258l-4.708.935a.732.732 0 1 0 .286 1.437l4.71-.936c-.094.482-.362.965-.793 1.408a4.424 4.424 0 0 1-.607.516h-6.157c.35-.346.67-.733.956-1.16zm22.423 7.845H14.776V47.22H34.75v1.316zM26.67 14.644l-.032.02.032-.02zm-.032.02c-.02.012-.017.01 0 0z"/>
            <path d="M28.255 7.995a4.99 4.99 0 0 0 1.555-3.631A4.997 4.997 0 0 0 27.46.113a.732.732 0 1 0-.78 1.24 3.54 3.54 0 0 1 1.665 3.01 3.54 3.54 0 0 1-1.666 3.012.74.74 0 0 0 0 1.24 3.54 3.54 0 0 1 1.666 3.011 3.54 3.54 0 0 1-1.675 3.018l.01-.007a.732.732 0 0 0 .78 1.24 4.997 4.997 0 0 0 2.35-4.25 4.99 4.99 0 0 0-1.555-3.632zm-1.194 6.402c.018-.01.02-.012 0 0zm-.095.06.044-.028-.044.028zm5.648-7.082a.732.732 0 1 0-.78 1.24 3.54 3.54 0 0 1 1.665 3.011 3.54 3.54 0 0 1-1.665 3.011.732.732 0 0 0 .78 1.24 4.997 4.997 0 0 0 2.35-4.25 4.997 4.997 0 0 0-2.35-4.252zm-10.731 0a.732.732 0 1 0-.78 1.24 3.54 3.54 0 0 1 1.666 3.011 3.54 3.54 0 0 1-1.666 3.011.732.732 0 0 0 .78 1.24 4.997 4.997 0 0 0 2.35-4.25 4.997 4.997 0 0 0-2.35-4.252z"/>
        </g>
        <defs>
            <clipPath id="cclip0_1_620">
                <path d="M0 0h50v50H0z"/>
            </clipPath>
        </defs>
    </svg>
    <svg viewBox="0 0 11 18" id="facebook" xmlns="http://www.w3.org/2000/svg">
        <path d="M10.167.667h-2.5A4.167 4.167 0 0 0 3.5 4.833v2.5H1v3.333h2.5v6.667h3.333v-6.666h2.5l.834-3.334H6.833v-2.5A.833.833 0 0 1 7.667 4h2.5V.667z" stroke="#fff" stroke-linecap="round" stroke-linejoin="round"/>
    </svg>
    <svg viewBox="0 0 20 16" id="gmaillogo" xmlns="http://www.w3.org/2000/svg">
        <path d="M2.75 1h14c.962 0 1.75.788 1.75 1.75v10.5c0 .963-.788 1.75-1.75 1.75h-14C1.788 15 1 14.213 1 13.25V2.75C1 1.788 1.788 1 2.75 1z" stroke="#fff" stroke-width="2" stroke-linecap="round" stroke-linejoin="round"/>
        <path d="M18.5 2.75 9.75 8.875 1 2.75" stroke="#fff" stroke-width="2" stroke-linecap="round" stroke-linejoin="round"/>
    </svg>
    <svg viewBox="0 0 18 18" id="insta" xmlns="http://www.w3.org/2000/svg">
        <path d="M13.167.667H4.833A4.167 4.167 0 0 0 .667 4.833v8.334a4.167 4.167 0 0 0 4.166 4.166h8.334a4.167 4.167 0 0 0 4.166-4.166V4.832A4.167 4.167 0 0 0 13.167.667z" stroke="#fff" stroke-linecap="round" stroke-linejoin="round"/>
        <path d="M12.332 8.475a3.333 3.333 0 1 1-6.593.978 3.333 3.333 0 0 1 6.593-.978zm1.251-4.058h.008" stroke="#fff" stroke-linecap="round" stroke-linejoin="round"/>
    </svg>
    <svg viewBox="0 0 18 17" id="linkedin" xmlns="http://www.w3.org/2000/svg">
        <path d="M12.334 5.667a5 5 0 0 1 5 5V16.5h-3.333v-5.833a1.667 1.667 0 0 0-3.334 0V16.5H7.334v-5.833a5 5 0 0 1 5-5zM4.001 6.5H.668v10H4v-10zM2.334 4a1.667 1.667 0 1 0 0-3.333 1.667 1.667 0 0 0 0 3.333z" stroke="#fff" stroke-linecap="round" stroke-linejoin="round"/>
    </svg>
    <svg viewBox="0 0 24 20" id="phone" xmlns="http://www.w3.org/2000/svg">
        <path d="M24 7.133A6.903 6.903 0 0 0 17.105.238H6.895A6.903 6.903 0 0 0 0 7.133c0 1.122.913 2.036 2.036 2.036h1.943l-1.407 3.186a8.741 8.741 0 0 0-.749 3.553v1.305a2.552 2.552 0 0 0 2.55 2.55h15.255a2.552 2.552 0 0 0 2.549-2.55v-1.305a8.74 8.74 0 0 0-.75-3.553L20.02 9.17h1.944A2.038 2.038 0 0 0 24 7.133zM6.895 1.81h10.21a5.331 5.331 0 0 1 4.918 3.286h-4.53a2.12 2.12 0 0 0-1.53-.65H8.037c-.601 0-1.145.25-1.532.653l-.045-.003H1.977A5.33 5.33 0 0 1 6.895 1.81zM2.036 7.597a.464.464 0 0 1-.464-.464c0-.157.007-.311.02-.465H5.91v.607a.322.322 0 0 1-.322.322H2.036zm18.569 8.31v1.306a.978.978 0 0 1-.977.977H4.372a.978.978 0 0 1-.977-.977v-1.306c0-1.01.207-1.992.615-2.917L5.7 9.165a1.896 1.896 0 0 0 1.78-1.89v-.701c0-.307.25-.556.557-.556h7.926c.307 0 .556.25.556.556v.701c0 1.006.79 1.832 1.781 1.89l1.69 3.825c.408.925.615 1.906.615 2.917zm-2.192-8.31a.322.322 0 0 1-.322-.322v-.607h4.316c.014.154.021.308.021.465a.464.464 0 0 1-.464.464h-3.551z"/>
    </svg>
    <svg viewBox="0 0 22 22" id="search" xmlns="http://www.w3.org/2000/svg">
        <path d="M18.778 9.889A8.889 8.889 0 1 1 1 9.889a8.889 8.889 0 0 1 17.778 0zM21 21l-4.833-4.833" opacity=".7"/>
    </svg>
    <svg viewBox="0 0 20 17" id="twitter" xmlns="http://www.w3.org/2000/svg">
        <path d="M19.333 1.342a9.082 9.082 0 0 1-2.616 1.275 3.733 3.733 0 0 0-6.55 2.5v.833a8.883 8.883 0 0 1-7.5-3.775s-3.334 7.5 4.166 10.833A9.7 9.7 0 0 1 1 14.675c7.5 4.167 16.667 0 16.667-9.583A3.739 3.739 0 0 0 17.6 4.4a6.433 6.433 0 0 0 1.733-3.058v0z" stroke="#fff" stroke-linecap="round" stroke-linejoin="round"/>
    </svg>
</svg>
